Coordinates
version=1
nRows=7
nColumns=40
inDegrees=yes

Units are S.I. units (second, meters, Newtons, ...)
Angles are in degrees.

endheader
time	pelvis_tilt	pelvis_list	pelvis_rotation	pelvis_tx	pelvis_ty	pelvis_tz	hip_flexion_r	hip_adduction_r	hip_rotation_r	knee_angle_r	knee_angle_r_beta	ankle_angle_r	subtalar_angle_r	mtp_angle_r	hip_flexion_l	hip_adduction_l	hip_rotation_l	knee_angle_l	knee_angle_l_beta	ankle_angle_l	subtalar_angle_l	mtp_angle_l	lumbar_extension	lumbar_bending	lumbar_rotation	arm_flex_r	arm_add_r	arm_rot_r	elbow_flex_r	pro_sup_r	wrist_flex_r	wrist_dev_r	arm_flex_l	arm_add_l	arm_rot_l	elbow_flex_l	pro_sup_l	wrist_flex_l	wrist_dev_l
     13.57750000	     -1.97142746	     -5.71624260	     -1.01610629	      0.90779489	      0.91164522	      0.59059945	     15.20308281	      7.46860988	    -11.28006934	     30.03869868	     30.03869868	     18.03896283	    -11.78627798	      0.62883927	     28.10514202	    -16.57597670	     -2.25536181	     62.66694420	     62.66694420	     17.08549598	    -19.65484038	     24.24505792	    -12.14978044	      7.46886872	     -0.10246544	     16.24003243	    -12.37382307	    -13.41539790	     34.99773266	     46.05628938	      0.00000000	      0.00000000	      7.12869265	     -9.22901393	      1.56062325	     32.81825382	     46.39475463	      0.00000000	      0.00000000
     13.59871429	     -1.93492639	     -5.63856552	     -0.22961392	      0.90544847	      0.91044515	      0.59083206	     15.17910691	      7.36073076	    -11.57440421	     30.53165690	     30.53165690	     18.51099306	    -12.46319552	      0.82034182	     29.11010848	    -16.43803938	     -2.15126155	     60.57089854	     60.57089854	     17.41727435	    -19.64054873	     23.97742473	    -12.25277821	      7.21937790	     -0.29908883	     19.02436576	    -12.43935595	    -12.84129001	     37.08961243	     45.95754958	      0.00000000	      0.00000000	      4.75048962	     -8.81181768	      2.31291653	     30.51822309	     46.24534259	      0.00000000	      0.00000000
     13.61992857	     -1.97288473	     -5.54459738	      0.54212392	      0.90296682	      0.90970662	      0.59062632	     15.07282397	      7.20245855	    -11.96026056	     30.70947675	     30.70947675	     18.82937147	    -12.90299825	      0.81959062	     30.06639133	    -16.09907979	     -1.91292590	     58.08313422	     58.08313422	     17.49661852	    -19.60810374	     23.89220996	    -12.29138718	      6.98451378	      0.52164161	     21.53480494	    -13.28554546	    -12.80186976	     38.39323725	     45.92260530	      0.00000000	      0.00000000	      2.65754960	     -8.19262414	      2.59307781	     29.45730368	     46.16786353	      0.00000000	      0.00000000
     13.64114286	     -1.99826371	     -5.35795836	      1.39361087	      0.90043718	      0.90948915	      0.59000819	     14.89826687	      6.95373090	    -12.28478496	     30.80964693	     30.80964693	     19.37374133	    -13.32734514	      1.74162160	     30.80576320	    -15.49259670	     -1.55918453	     55.13289392	     55.13289392	     16.62345470	    -19.57259969	     21.91476123	    -12.34401247	      6.71441082	      0.23284137	     23.50973518	    -13.91037645	     -9.36808535	     43.28595927	     45.56794001	      0.00000000	      0.00000000	      0.76640930	     -8.22691848	      5.41285735	     26.38540162	     45.66073696	      0.00000000	      0.00000000
     13.66235714	     -2.10107409	     -5.12180547	      2.23108540	      0.89792037	      0.90989598	      0.58897390	     14.56104852	      6.62710449	    -12.70657050	     30.45418568	     30.45418568	     19.52799251	    -13.60770177	      1.80780407	     31.48975367	    -14.63860924	     -1.00139804	     51.97937290	     51.97937290	     16.09834876	    -19.49101242	     21.93820418	    -12.28409575	      6.38473307	      0.30000795	     26.31613082	    -14.24168586	     -9.38193760	     45.19258030	     45.51617696	      0.00000000	      0.00000000	     -1.49566588	     -8.08457882	      5.79584007	     25.56394890	     45.55235666	      0.00000000	      0.00000000
     13.68357143	     -2.29126011	     -4.95612020	      3.09938977	      0.89533907	      0.91062801	      0.58758708	     14.17206263	      6.33701366	    -13.30221749	     29.83006176	     29.83006176	     19.51860761	    -13.60573492	      1.79391099	     32.13924047	    -13.72380763	     -0.23259430	     48.63835068	     48.63835068	     14.94564908	    -19.38956157	     20.67360498	    -12.17731753	      6.14727952	      0.12050193	     29.07567273	    -14.52302848	     -8.94147889	     48.14731998	     45.40717742	      0.00000000	      0.00000000	     -3.99820150	     -8.10145812	      6.57446210	     25.35245909	     45.35717836	      0.00000000	      0.00000000
     13.70478571	     -2.47769254	     -4.71692031	      3.88846811	      0.89294951	      0.91191423	      0.58594931	     13.54821046	      6.02077182	    -13.79141404	     28.79679455	     28.79679455	     19.28375166	    -13.61158697	      1.32339469	     32.42730646	    -12.72739998	      0.44874263	     44.92551913	     44.92551913	     13.01634328	    -19.24187639	     17.64768176	    -12.07743158	      5.86028295	      0.69330994	     31.03843924	    -15.84551850	     -7.52337538	     51.97217634	     45.24552524	      0.00000000	      0.00000000	     -6.44321910	     -8.61706587	      9.22045682	     26.84811588	     44.84159416	      0.00000000	      0.00000000
